<svg height="512pt" viewBox="0 0 512 512" width="512pt" xmlns="http://www.w3.org/2000/svg"><path d="m512 256c0 141.386719-114.613281 256-256 256s-256-114.613281-256-256 114.613281-256 256-256 256 114.613281 256 256zm0 0" fill="#ff6c52"/><path d="m511.914062 262.691406-113.953124-113.949218-9.535157 12.921874-69.632812-69.628906-207.597657 290.6875 128.765626 128.761719c5.304687.328125 10.648437.515625 16.039062.515625 139.148438 0 252.363281-111.015625 255.914062-249.308594zm0 0" fill="#f92814"/><path d="m375.132812 452.125h-160.265624c-16.496094 0-29.867188-13.371094-29.867188-29.867188v-254.265624c0-16.496094 13.371094-29.867188 29.867188-29.867188h160.265624c16.496094 0 29.867188 13.371094 29.867188 29.867188v254.265624c0 16.496094-13.371094 29.867188-29.867188 29.867188zm0 0" fill="#dce1eb"/><path d="m375.132812 138.125h-80.164062v314h80.164062c16.496094 0 29.867188-13.371094 29.867188-29.867188v-254.265624c0-16.496094-13.371094-29.867188-29.867188-29.867188zm0 0" fill="#bec3d2"/><path d="m367.136719 427.222656h-144.273438c-7.234375 0-13.097656-5.867187-13.097656-13.101562v-237.992188c0-7.238281 5.863281-13.101562 13.097656-13.101562h144.273438c7.234375 0 13.097656 5.863281 13.097656 13.101562v237.992188c0 7.234375-5.863281 13.101562-13.097656 13.101562zm0 0" fill="#2864f0"/><path d="m367.136719 163.027344h-72.167969v264.195312h72.167969c7.234375 0 13.097656-5.867187 13.097656-13.101562v-237.992188c0-7.234375-5.863281-13.101562-13.097656-13.101562zm0 0" fill="#27488f"/><path d="m295.132812 394.382812h-160.265624c-16.496094 0-29.867188-13.371093-29.867188-29.867187v-254.265625c0-16.496094 13.371094-29.867188 29.867188-29.867188h160.265624c16.496094 0 29.867188 13.371094 29.867188 29.867188v254.265625c0 16.496094-13.371094 29.867187-29.867188 29.867187zm0 0" fill="#fff"/><path d="m295.132812 80.382812h-80.164062v314h80.164062c16.496094 0 29.867188-13.371093 29.867188-29.867187v-254.265625c0-16.496094-13.371094-29.867188-29.867188-29.867188zm0 0" fill="#e9edf5"/><path d="m215 163.476562s-63.636719 28-63.636719 74.707032c0 20.34375 16.492188 36.839844 36.839844 36.839844 4.882813 0 9.535156-.960938 13.796875-2.6875v37.335937h26v-37.335937c4.261719 1.726562 8.914062 2.6875 13.796875 2.6875 20.347656 0 36.839844-16.496094 36.839844-36.839844 0-37.976563-63.636719-74.707032-63.636719-74.707032zm0 0" fill="#414952"/><path d="m215 163.476562s-.015625.007813-.03125.011719v146.183594h13.03125v-37.335937c4.261719 1.726562 8.914062 2.6875 13.796875 2.6875 20.347656 0 36.839844-16.496094 36.839844-36.839844 0-37.976563-63.636719-74.707032-63.636719-74.707032zm0 0" fill="#23272b"/><path d="m303.054688 357.101562c0 8.28125-6.714844 15-14.996094 15-8.285156 0-15-6.71875-15-15 0-8.285156 6.714844-15 15-15 8.28125 0 14.996094 6.714844 14.996094 15zm0 0" fill="#23272b"/><path d="m154.21875 117.113281c0 8.285157-6.714844 15-15 15s-15-6.714843-15-15c0-8.28125 6.714844-15 15-15s15 6.71875 15 15zm0 0" fill="#414952"/></svg>